<svg xmlns="http://www.w3.org/2000/svg" xmlns:xlink="http://www.w3.org/1999/xlink" width="385" height="89" viewBox="0 0 385 89">
  <defs>
    <clipPath id="clip-Web_1920_2">
      <rect width="385" height="89"/>
    </clipPath>
  </defs>
  <g id="Web_1920_2" data-name="Web 1920 – 2" clip-path="url(#clip-Web_1920_2)">
    <text id="Batcher" transform="translate(103 73)" fill="#fff" font-size="77" font-family="CircularStd-Black, Circular Std" font-weight="800"><tspan x="0" y="0">Batcher</tspan></text>
    <g id="badger" transform="translate(-0.943 1.694)">
      <g id="Group_2" data-name="Group 2" transform="translate(1.44 0)">
        <g id="Group_1" data-name="Group 1" transform="translate(0)">
          <path id="Path_1" data-name="Path 1" d="M80.485,28.733A27.081,27.081,0,0,0,85.4,16.108a14.061,14.061,0,0,0-6.467-13.8c-5.069-3.2-11.639-3.066-17.145.36a24.324,24.324,0,0,0-7.147,7.368,52.008,52.008,0,0,0-20.271,0A24.325,24.325,0,0,0,27.221,2.67C21.714-.756,15.144-.894,10.075,2.309a14.062,14.062,0,0,0-6.467,13.8A27.075,27.075,0,0,0,8.521,28.733C1.978,39.951,1.44,52,1.44,55.612V57.4l1.612.766c5.389,2.561,20.4,10.229,25.1,14.9a54.333,54.333,0,0,1,4.723,5.571c3.162,4.1,6.149,7.978,11.633,7.978s8.471-3.875,11.633-7.978a54.35,54.35,0,0,1,4.723-5.571c4.692-4.672,19.706-12.34,25.1-14.9l1.612-.766V55.612C87.566,52,87.028,39.951,80.485,28.733ZM64.77,7.466a10.45,10.45,0,0,1,11.143-.381,8.421,8.421,0,0,1,3.873,8.386,20.788,20.788,0,0,1-2.765,8.184,37.394,37.394,0,0,0-11.288-9.584,37.876,37.876,0,0,0-5.331-2.4A16.827,16.827,0,0,1,64.77,7.466ZM13.094,7.085a10.449,10.449,0,0,1,11.143.382,16.83,16.83,0,0,1,4.368,4.2,37.839,37.839,0,0,0-5.331,2.4,37.4,37.4,0,0,0-11.288,9.584,20.785,20.785,0,0,1-2.765-8.184A8.42,8.42,0,0,1,13.094,7.085ZM7.129,53.861c.209-4.8,1.414-15.155,7.531-24.3a33.911,33.911,0,0,1,5.9-6.751C25.333,34.491,29.418,51.42,31.65,68.6,25.957,63.321,11.969,56.235,7.129,53.861ZM50.811,76.282c-2.418,3.081-3.984,4.682-6.308,4.682s-3.89-1.6-6.308-4.682q-.028-.293-.056-.587H50.867Q50.839,75.989,50.811,76.282Zm.667-6.236H37.528C35.23,50.882,30.721,32.2,25.264,19.423c5.379-3.147,11.809-4.734,19.239-4.734s13.86,1.586,19.239,4.734C58.285,32.2,53.776,50.882,51.478,70.046ZM57.356,68.6c2.232-17.177,6.317-34.106,11.093-45.786a33.916,33.916,0,0,1,5.9,6.751c6.117,9.143,7.321,19.493,7.531,24.3C77.038,56.235,63.049,63.321,57.356,68.6Z" transform="translate(-1.44 0)" fill="#fff"/>
        </g>
      </g>
      <g id="Group_4" data-name="Group 4" transform="translate(62.46 48.648)">
        <g id="Group_3" data-name="Group 3">
          <path id="Path_2" data-name="Path 2" d="M365.608,287.579a3.482,3.482,0,1,0,3.452,3.482A3.468,3.468,0,0,0,365.608,287.579Z" transform="translate(-362.154 -287.579)" fill="#fff"/>
        </g>
      </g>
      <g id="Group_6" data-name="Group 6" transform="translate(19.639 48.648)">
        <g id="Group_5" data-name="Group 5">
          <path id="Path_3" data-name="Path 3" d="M112.477,287.579a3.482,3.482,0,1,0,3.452,3.482A3.468,3.468,0,0,0,112.477,287.579Z" transform="translate(-109.023 -287.579)" fill="#fff"/>
        </g>
      </g>
    </g>
    <rect id="Rectangle_3" data-name="Rectangle 3" width="72" height="20" rx="10" transform="translate(313 2)" fill="#ff3c3c"/>
    <text id="ALPHA" transform="translate(327 17)" fill="#fff" font-size="13" font-family="CircularStd-Black, Circular Std" font-weight="800"><tspan x="0" y="0">ALPHA</tspan></text>
  </g>
</svg>
